<svg width="164" height="75" viewBox="0 0 164 75" fill="none" xmlns="http://www.w3.org/2000/svg">
<path d="M18.9895 23.3035L1.72632 42.0535L18.9895 60.8035" stroke="black" stroke-width="2" stroke-linecap="round" stroke-linejoin="round"/>
<path d="M53.5158 23.3035L70.7789 42.0535L53.5158 60.8035" stroke="black" stroke-width="2" stroke-linecap="round" stroke-linejoin="round"/>
<path d="M42.355 9.45497L27.5315 69.5419C27.33 70.3585 26.5573 70.843 25.8055 70.6242C25.0538 70.4056 24.6076 69.5661 24.8091 68.7498L39.6326 8.66267C39.834 7.84614 40.6067 7.36159 41.3585 7.58036C42.1104 7.79916 42.5564 8.63844 42.355 9.45497Z" fill="black"/>
<path d="M39.6326 8.66267C39.8341 7.84614 40.6068 7.36159 41.3586 7.58036C42.1104 7.79916 42.5565 8.63844 42.355 9.45499L40.5496 16.7733L37.8272 15.981L39.6326 8.66267Z" fill="#D9D9D9"/>
<path d="M44.3573 13.167L49.8021 14.7516" stroke="black" stroke-width="1.5" stroke-linecap="round"/>
<path d="M30.745 9.20557L36.19 10.7902" stroke="black" stroke-width="1.5" stroke-linecap="round"/>
<path d="M33.9147 2.271L36.7417 7.53834" stroke="black" stroke-width="1.5" stroke-linecap="round"/>
<path d="M30.3599 16.6809L35.2329 13.6545" stroke="black" stroke-width="1.5" stroke-linecap="round"/>
<path d="M43.6337 16.0996L46.4609 21.367" stroke="black" stroke-width="1.5" stroke-linecap="round"/>
<path d="M45.1426 9.98339L50.0157 6.95703" stroke="black" stroke-width="1.5" stroke-linecap="round"/>
<path d="M94.975 28.2599C93.5387 28.2599 92.2405 27.9149 91.0804 27.2249C89.9341 26.5349 89.0296 25.5824 88.3666 24.3674C87.7176 23.1374 87.393 21.7649 87.393 20.2499C87.393 18.7349 87.7176 17.3699 88.3666 16.1549C89.0296 14.9249 89.941 13.9649 91.1011 13.2749C92.2612 12.5849 93.5594 12.2399 94.9957 12.2399C96.0729 12.2399 97.0673 12.4349 97.9788 12.8249C98.8903 13.2149 99.6637 13.7849 100.299 14.5349L99.3253 15.5924C98.1928 14.3474 96.7634 13.7249 95.0371 13.7249C93.8909 13.7249 92.8482 14.0099 91.909 14.5799C90.9699 15.1499 90.2311 15.9299 89.6925 16.9199C89.1677 17.9099 88.9053 19.0199 88.9053 20.2499C88.9053 21.4799 89.1677 22.5899 89.6925 23.5799C90.2311 24.5699 90.9699 25.3499 91.909 25.9199C92.8482 26.4899 93.8909 26.7749 95.0371 26.7749C96.7773 26.7749 98.2066 26.1449 99.3253 24.8849L100.299 25.9424C99.6637 26.6924 98.8834 27.2699 97.9581 27.6749C97.0466 28.0649 96.0522 28.2599 94.975 28.2599ZM107.225 28.2374C106.175 28.2374 105.229 27.9824 104.387 27.4724C103.544 26.9474 102.881 26.2274 102.398 25.3124C101.914 24.3974 101.673 23.3624 101.673 22.2074C101.673 21.0524 101.914 20.0174 102.398 19.1024C102.881 18.1874 103.544 17.4749 104.387 16.9649C105.229 16.4549 106.175 16.1999 107.225 16.1999C108.274 16.1999 109.22 16.4549 110.063 16.9649C110.905 17.4749 111.561 18.1874 112.031 19.1024C112.514 20.0174 112.756 21.0524 112.756 22.2074C112.756 23.3624 112.514 24.3974 112.031 25.3124C111.561 26.2274 110.905 26.9474 110.063 27.4724C109.22 27.9824 108.274 28.2374 107.225 28.2374ZM107.225 26.8199C107.998 26.8199 108.688 26.6324 109.296 26.2574C109.918 25.8674 110.401 25.3199 110.746 24.6149C111.092 23.9099 111.264 23.1074 111.264 22.2074C111.264 21.3074 111.092 20.5049 110.746 19.7999C110.401 19.0949 109.918 18.5549 109.296 18.1799C108.688 17.7899 107.998 17.5949 107.225 17.5949C106.451 17.5949 105.754 17.7899 105.132 18.1799C104.525 18.5549 104.041 19.0949 103.682 19.7999C103.337 20.5049 103.164 21.3074 103.164 22.2074C103.164 23.1074 103.337 23.9099 103.682 24.6149C104.041 25.3199 104.525 25.8674 105.132 26.2574C105.754 26.6324 106.451 26.8199 107.225 26.8199ZM125.702 11.4299V28.1249H124.293V25.7849C123.851 26.5799 123.264 27.1874 122.533 27.6074C121.814 28.0274 121 28.2374 120.088 28.2374C119.066 28.2374 118.141 27.9824 117.312 27.4724C116.483 26.9624 115.834 26.2499 115.365 25.3349C114.895 24.4199 114.661 23.3774 114.661 22.2074C114.661 21.0374 114.895 19.9949 115.365 19.0799C115.834 18.1649 116.483 17.4599 117.312 16.9649C118.141 16.4549 119.066 16.1999 120.088 16.1999C120.972 16.1999 121.766 16.4024 122.47 16.8074C123.189 17.1974 123.775 17.7749 124.231 18.5399V11.4299H125.702ZM120.212 26.8199C120.972 26.8199 121.656 26.6324 122.263 26.2574C122.885 25.8674 123.368 25.3199 123.713 24.6149C124.072 23.9099 124.252 23.1074 124.252 22.2074C124.252 21.3074 124.072 20.5049 123.713 19.7999C123.368 19.0949 122.885 18.5549 122.263 18.1799C121.656 17.7899 120.972 17.5949 120.212 17.5949C119.439 17.5949 118.742 17.7899 118.12 18.1799C117.512 18.5549 117.029 19.0949 116.67 19.7999C116.325 20.5049 116.152 21.3074 116.152 22.2074C116.152 23.1074 116.325 23.9099 116.67 24.6149C117.029 25.3199 117.512 25.8674 118.12 26.2574C118.742 26.6324 119.439 26.8199 120.212 26.8199ZM129.798 16.2899H131.269V28.1249H129.798V16.2899ZM130.544 13.7024C130.24 13.7024 129.985 13.5899 129.778 13.3649C129.57 13.1399 129.467 12.8699 129.467 12.5549C129.467 12.2549 129.57 11.9924 129.778 11.7674C129.985 11.5424 130.24 11.4299 130.544 11.4299C130.848 11.4299 131.103 11.5424 131.31 11.7674C131.518 11.9774 131.621 12.2324 131.621 12.5324C131.621 12.8624 131.518 13.1399 131.31 13.3649C131.103 13.5899 130.848 13.7024 130.544 13.7024ZM140.913 16.1999C142.281 16.1999 143.365 16.6349 144.166 17.5049C144.981 18.3599 145.388 19.6124 145.388 21.2624V28.1249H143.917V21.4199C143.917 20.1899 143.634 19.2524 143.068 18.6074C142.502 17.9624 141.694 17.6399 140.644 17.6399C139.47 17.6399 138.538 18.0224 137.848 18.7874C137.171 19.5374 136.832 20.5799 136.832 21.9149V28.1249H135.362V16.2899H136.77V18.4724C137.171 17.7524 137.723 17.1974 138.428 16.8074C139.146 16.4024 139.974 16.1999 140.913 16.1999ZM159.51 16.2899V26.6849C159.51 28.6949 159.054 30.1799 158.143 31.1399C157.245 32.1149 155.885 32.6024 154.062 32.6024C153.054 32.6024 152.094 32.4374 151.182 32.1074C150.285 31.7924 149.553 31.3499 148.987 30.7799L149.732 29.5649C150.257 30.0749 150.892 30.4724 151.638 30.7574C152.398 31.0424 153.192 31.1849 154.021 31.1849C155.402 31.1849 156.417 30.8324 157.066 30.1274C157.715 29.4374 158.039 28.3574 158.039 26.8874V25.3799C157.584 26.1299 156.983 26.6999 156.237 27.0899C155.505 27.4799 154.69 27.6749 153.793 27.6749C152.771 27.6749 151.838 27.4349 150.996 26.9549C150.167 26.4599 149.511 25.7774 149.028 24.9074C148.558 24.0224 148.324 23.0249 148.324 21.9149C148.324 20.8049 148.558 19.8149 149.028 18.9449C149.511 18.0749 150.167 17.3999 150.996 16.9199C151.825 16.4399 152.757 16.1999 153.793 16.1999C154.718 16.1999 155.553 16.4024 156.299 16.8074C157.045 17.2124 157.646 17.7974 158.102 18.5624V16.2899H159.51ZM153.938 26.2574C154.725 26.2574 155.436 26.0774 156.071 25.7174C156.707 25.3424 157.197 24.8249 157.542 24.1649C157.901 23.5049 158.081 22.7549 158.081 21.9149C158.081 21.0749 157.901 20.3324 157.542 19.6874C157.197 19.0274 156.707 18.5174 156.071 18.1574C155.45 17.7824 154.739 17.5949 153.938 17.5949C153.15 17.5949 152.439 17.7749 151.804 18.1349C151.182 18.4949 150.692 19.0049 150.333 19.6649C149.988 20.3249 149.815 21.0749 149.815 21.9149C149.815 22.7549 149.988 23.5049 150.333 24.1649C150.692 24.8249 151.182 25.3424 151.804 25.7174C152.439 26.0774 153.15 26.2574 153.938 26.2574Z" fill="black"/>
<path d="M134.578 43.9746C134.289 44.436 133.965 44.9889 133.607 45.6336C133.25 46.278 132.869 46.9995 132.464 47.7979C132.12 48.4644 131.78 49.1749 131.443 49.9292C131.112 50.6762 130.795 51.4196 130.492 52.1595C130.189 52.8919 129.909 53.5986 129.652 54.2797C129.396 54.9536 129.174 55.5506 128.985 56.0706C128.796 56.5832 128.648 56.997 128.54 57.312C128.432 57.6197 128.378 57.7772 128.378 57.7845C128.31 57.9675 128.189 58.059 128.014 58.059C127.926 58.059 127.849 58.0297 127.781 57.9712C127.714 57.9052 127.67 57.8246 127.65 57.7296C127.65 57.7222 127.616 57.5683 127.549 57.2681C127.488 56.9604 127.403 56.5539 127.296 56.0486C127.188 55.5358 127.063 54.9499 126.921 54.2908C126.786 53.6242 126.641 52.9322 126.486 52.2144C126.338 51.4892 126.186 50.7568 126.031 50.0171C125.876 49.2772 125.731 48.5741 125.596 47.9077C125.144 49.2921 124.689 50.5189 124.231 51.5882C123.779 52.6502 123.313 53.5766 122.835 54.3677C122.356 55.1514 121.86 55.8105 121.348 56.3452C120.842 56.8798 120.309 57.312 119.75 57.6416C119.197 57.9639 118.613 58.1946 118 58.3337C117.393 58.4728 116.749 58.5426 116.068 58.5426C115.717 58.5426 115.343 58.4985 114.945 58.4106C114.547 58.3301 114.153 58.2019 113.761 58.0262C113.37 57.8503 112.996 57.6306 112.639 57.3669C112.281 57.1033 111.964 56.7921 111.688 56.4332C111.411 56.0668 111.192 55.6567 111.03 55.2026C110.869 54.7412 110.788 54.2286 110.788 53.6646C110.788 53.0713 110.902 52.5292 111.132 52.0386C111.361 51.5406 111.671 51.1157 112.062 50.7641C112.453 50.4052 112.905 50.127 113.418 49.9292C113.937 49.7314 114.483 49.6326 115.056 49.6326C115.474 49.6326 115.849 49.6729 116.179 49.7535C116.516 49.8266 116.813 49.9219 117.069 50.0391C117.325 50.1562 117.544 50.2845 117.727 50.4236C117.909 50.5627 118.06 50.691 118.182 50.8082C118.303 50.9254 118.391 51.0277 118.445 51.1157C118.499 51.1963 118.529 51.2366 118.536 51.2366C118.576 51.3171 118.597 51.3941 118.597 51.4672C118.597 51.5698 118.559 51.6651 118.485 51.753C118.418 51.8407 118.327 51.8848 118.212 51.8848C118.077 51.8848 117.969 51.8226 117.889 51.6981C117.882 51.6907 117.828 51.6247 117.727 51.5002C117.625 51.3684 117.46 51.2256 117.231 51.0718C117.002 50.9179 116.705 50.7787 116.341 50.6542C115.983 50.5297 115.545 50.4675 115.026 50.4675C114.554 50.4675 114.106 50.5481 113.681 50.7092C113.263 50.8631 112.895 51.0827 112.578 51.3684C112.268 51.654 112.018 51.9947 111.83 52.3901C111.647 52.7782 111.556 53.2069 111.556 53.6756C111.556 54.1369 111.627 54.5582 111.769 54.939C111.91 55.3198 112.099 55.6603 112.335 55.9607C112.571 56.2611 112.844 56.5209 113.155 56.7407C113.465 56.9604 113.789 57.1436 114.126 57.2901C114.463 57.4292 114.8 57.5353 115.137 57.6086C115.481 57.6746 115.805 57.7074 116.108 57.7074C116.621 57.7074 117.12 57.6673 117.605 57.5867C118.098 57.4987 118.58 57.3377 119.052 57.1033C119.53 56.8689 119.999 56.5466 120.458 56.1366C120.916 55.7263 121.371 55.1916 121.823 54.5325C122.275 53.8732 122.72 53.0786 123.158 52.1484C123.604 51.2182 124.049 50.1197 124.494 48.8526C124.629 48.4717 124.76 48.0615 124.888 47.622C125.016 47.1827 125.148 46.7394 125.283 46.2928C125.168 45.6482 125.084 45.0988 125.03 44.6447C124.982 44.1907 124.959 43.8135 124.959 43.5131C124.959 43.191 124.982 42.9345 125.03 42.7442C125.077 42.5537 125.138 42.4108 125.212 42.3157C125.286 42.2132 125.367 42.1509 125.455 42.129C125.542 42.0996 125.627 42.0849 125.708 42.0849C125.775 42.0849 125.849 42.0996 125.93 42.129C126.018 42.1582 126.095 42.2241 126.163 42.3266C126.237 42.4219 126.298 42.5647 126.345 42.7551C126.392 42.9456 126.416 43.2019 126.416 43.5242C126.416 43.8757 126.385 44.2822 126.325 44.7437C126.264 45.2051 126.173 45.7142 126.051 46.2707C126.139 46.7175 126.24 47.2155 126.355 47.7649C126.47 48.3142 126.587 48.8856 126.709 49.4788C126.83 50.0647 126.955 50.6653 127.083 51.2805C127.211 51.8957 127.336 52.4962 127.457 53.0822C127.579 53.6681 127.693 54.2286 127.801 54.7631C127.916 55.2979 128.02 55.7812 128.115 56.2134C128.297 55.7152 128.52 55.1147 128.782 54.4116C129.046 53.7011 129.339 52.9504 129.663 52.1595C129.986 51.3611 130.327 50.5517 130.684 49.7314C131.048 48.9037 131.419 48.1237 131.797 47.3914C132.33 46.3513 132.818 45.4614 133.263 44.7217C133.709 43.9746 134.093 43.3594 134.417 42.876C134.74 42.3926 134.993 42.0373 135.175 41.8102C135.364 41.5759 135.465 41.4478 135.479 41.4259C135.553 41.3452 135.644 41.3049 135.752 41.3049C135.866 41.3049 135.958 41.3488 136.025 41.4367C136.099 41.5174 136.136 41.6126 136.136 41.7225C136.136 41.7737 136.126 41.8249 136.106 41.8762C136.106 41.8836 136.065 41.9934 135.984 42.2059C135.91 42.4108 135.813 42.6966 135.691 43.0627C135.577 43.4216 135.448 43.8465 135.307 44.3372C135.165 44.8206 135.027 45.3442 134.892 45.9082C134.757 46.4647 134.636 47.0509 134.528 47.6661C134.427 48.2739 134.353 48.8818 134.305 49.4897C134.285 49.7681 134.268 50.061 134.255 50.3687C134.241 50.6689 134.235 50.9728 134.235 51.2805C134.235 51.7639 134.255 52.251 134.295 52.7417C134.336 53.2324 134.403 53.7049 134.498 54.159C134.592 54.6131 134.72 55.0416 134.882 55.4443C135.044 55.8397 135.243 56.1877 135.479 56.4881C135.715 56.7883 135.994 57.03 136.318 57.2132C136.649 57.3962 137.03 57.4952 137.461 57.5098C137.569 57.5171 137.653 57.5683 137.714 57.6636C137.782 57.7515 137.815 57.8467 137.815 57.9491C137.815 58.0517 137.778 58.1434 137.704 58.2238C137.63 58.3044 137.542 58.3447 137.441 58.3447C137.333 58.3447 137.225 58.3337 137.117 58.3117C136.632 58.2384 136.204 58.0884 135.833 57.8614C135.462 57.627 135.142 57.3412 134.872 57.0043C134.602 56.6602 134.376 56.2719 134.194 55.8397C134.019 55.4004 133.877 54.9317 133.769 54.4335C133.661 53.9355 133.584 53.4191 133.537 52.8846C133.496 52.3425 133.476 51.7969 133.476 51.2475C133.476 50.5957 133.506 49.9438 133.567 49.2921C133.628 48.6401 133.709 48.0066 133.81 47.3914C133.911 46.7689 134.029 46.1681 134.164 45.5897C134.299 45.0111 134.437 44.4727 134.578 43.9746ZM146.221 55.0597C146.194 55.1184 146.137 55.2429 146.049 55.4334C145.968 55.6164 145.86 55.8289 145.725 56.0706C145.597 56.3122 145.446 56.565 145.27 56.8286C145.095 57.0922 144.899 57.3339 144.683 57.5537C144.468 57.7734 144.235 57.9566 143.985 58.1031C143.736 58.2422 143.473 58.3117 143.197 58.3117C142.806 58.3117 142.475 58.1762 142.205 57.9052C141.942 57.6343 141.75 57.2936 141.629 56.8836C141.399 57.3009 141.126 57.6343 140.809 57.8833C140.492 58.125 140.175 58.2459 139.859 58.2459C139.609 58.2459 139.383 58.1983 139.181 58.1031C138.979 58.0005 138.806 57.8614 138.665 57.6855C138.523 57.5025 138.412 57.2901 138.331 57.0484C138.257 56.8067 138.22 56.5429 138.22 56.2573C138.22 55.686 138.308 55.1842 138.483 54.7522C138.665 54.3127 138.894 53.9466 139.171 53.6535C139.447 53.3606 139.751 53.1409 140.081 52.9944C140.418 52.8478 140.742 52.7747 141.052 52.7747C141.261 52.7747 141.453 52.8077 141.629 52.8735C141.804 52.9322 141.952 52.998 142.074 53.0713C142.202 53.1446 142.3 53.2142 142.367 53.28C142.435 53.3387 142.472 53.3715 142.478 53.379C142.553 53.4741 142.59 53.5731 142.59 53.6756C142.59 53.7853 142.553 53.8843 142.478 53.9722C142.404 54.0527 142.317 54.093 142.215 54.093C142.108 54.093 142.016 54.0527 141.942 53.9722C141.929 53.9574 141.898 53.9319 141.851 53.8952C141.804 53.8513 141.74 53.8074 141.659 53.7634C141.578 53.7195 141.48 53.6829 141.366 53.6535C141.258 53.6169 141.133 53.5986 140.991 53.5986C140.782 53.5986 140.56 53.6499 140.324 53.7525C140.088 53.8551 139.872 54.0161 139.677 54.2359C139.481 54.4483 139.316 54.7192 139.181 55.0489C139.053 55.371 138.989 55.7556 138.989 56.2024C138.989 56.3415 139.002 56.4844 139.029 56.6308C139.056 56.7699 139.103 56.8982 139.171 57.0154C139.238 57.1326 139.329 57.2278 139.444 57.3009C139.558 57.3742 139.7 57.4108 139.869 57.4108C139.99 57.4108 140.128 57.3669 140.283 57.279C140.445 57.1912 140.597 57.0557 140.739 56.8725C140.887 56.6895 141.018 56.4587 141.133 56.1804C141.254 55.9022 141.339 55.5726 141.386 55.1916C141.399 55.0892 141.443 55.0048 141.517 54.939C141.592 54.8657 141.679 54.8291 141.78 54.8291C141.875 54.8291 141.956 54.8694 142.023 54.9499C142.097 55.0305 142.138 55.122 142.144 55.2246C142.151 55.3637 142.165 55.5615 142.185 55.8178C142.205 56.0668 142.249 56.316 142.317 56.565C142.391 56.814 142.499 57.03 142.64 57.2132C142.782 57.3962 142.977 57.4879 143.227 57.4879C143.389 57.4879 143.547 57.4402 143.702 57.345C143.864 57.2497 144.019 57.1252 144.168 56.9715C144.323 56.8102 144.468 56.6308 144.603 56.4332C144.744 56.2281 144.872 56.0229 144.987 55.8178C145.101 55.6129 145.203 55.4151 145.29 55.2246C145.378 55.0342 145.452 54.8694 145.513 54.7303C145.547 54.6497 145.594 54.5874 145.654 54.5434C145.722 54.4995 145.793 54.4776 145.867 54.4776C145.982 54.4776 146.073 54.5252 146.14 54.6204C146.214 54.7082 146.251 54.8034 146.251 54.906C146.251 54.9572 146.241 55.0086 146.221 55.0597ZM149.185 59.2016C150.452 57.4072 151.332 55.9168 151.825 54.7303C151.858 54.6497 151.902 54.591 151.956 54.5544C152.017 54.5106 152.084 54.4884 152.159 54.4884C152.273 54.4884 152.368 54.5325 152.442 54.6204C152.516 54.7009 152.553 54.7961 152.553 54.906C152.553 54.9572 152.543 55.0086 152.523 55.0597C152.226 55.7923 151.804 56.6089 151.258 57.5098C150.712 58.4106 150.021 59.4287 149.185 60.564C149.185 61.0254 149.188 61.4869 149.195 61.9483C149.201 62.4097 149.205 62.9151 149.205 63.4644C149.205 64.0136 149.191 64.5557 149.164 65.0902C149.144 65.6323 149.104 66.1449 149.043 66.6285C148.982 67.1192 148.898 67.5696 148.79 67.9798C148.689 68.3972 148.554 68.7561 148.386 69.0564C148.224 69.3639 148.025 69.6021 147.789 69.7704C147.56 69.9463 147.287 70.0342 146.97 70.0342C146.518 70.0342 146.17 69.8475 145.928 69.4738C145.685 69.1003 145.563 68.5693 145.563 67.8808C145.563 67.5146 145.594 67.1154 145.654 66.6834C145.722 66.2586 145.816 65.8191 145.938 65.3649C146.059 64.9108 146.204 64.4494 146.373 63.9806C146.548 63.5194 146.74 63.0688 146.949 62.6293C147.158 62.19 147.384 61.7689 147.627 61.3659C147.877 60.9632 148.139 60.597 148.416 60.2674C148.423 59.7546 148.426 59.2457 148.426 58.7402C148.433 58.2349 148.443 57.7697 148.456 57.345C148.254 57.6232 148.011 57.843 147.728 58.0041C147.452 58.1653 147.175 58.2459 146.899 58.2459C146.663 58.2459 146.447 58.1983 146.251 58.1031C146.063 58.0005 145.901 57.8614 145.766 57.6855C145.631 57.5025 145.526 57.2901 145.452 57.0484C145.378 56.8067 145.341 56.5429 145.341 56.2573C145.341 55.686 145.429 55.1842 145.604 54.7522C145.786 54.3127 146.015 53.9466 146.292 53.6535C146.568 53.3606 146.872 53.1409 147.202 52.9944C147.539 52.8478 147.863 52.7747 148.173 52.7747C148.382 52.7747 148.575 52.8039 148.75 52.8626C148.925 52.9211 149.073 52.9871 149.195 53.0602C149.323 53.1336 149.421 53.2031 149.488 53.2691C149.556 53.3349 149.593 53.3715 149.599 53.379C149.674 53.4667 149.711 53.5657 149.711 53.6756C149.711 53.7853 149.674 53.8843 149.599 53.9722C149.525 54.0527 149.438 54.093 149.336 54.093C149.242 54.093 149.151 54.0527 149.063 53.9722C149.036 53.9501 148.999 53.9209 148.952 53.8843C148.912 53.8402 148.854 53.7964 148.78 53.7525C148.713 53.7084 148.628 53.6719 148.527 53.6426C148.433 53.6134 148.318 53.5986 148.183 53.5986C147.981 53.5986 147.758 53.6499 147.516 53.7525C147.273 53.8477 147.047 54.0015 146.838 54.2139C146.629 54.4262 146.454 54.7009 146.312 55.0378C146.17 55.3674 146.1 55.7666 146.1 56.2354C146.1 56.5869 146.17 56.8725 146.312 57.0922C146.454 57.3047 146.673 57.4108 146.97 57.4108C147.111 57.4108 147.259 57.3669 147.415 57.279C147.576 57.1912 147.732 57.0557 147.88 56.8725C148.028 56.6895 148.156 56.4587 148.264 56.1804C148.379 55.9022 148.46 55.5726 148.507 55.1916C148.52 55.0892 148.564 55.0048 148.639 54.939C148.713 54.8657 148.8 54.8291 148.901 54.8291C149.016 54.8291 149.104 54.873 149.164 54.9609C149.232 55.0489 149.266 55.1477 149.266 55.2576C149.266 55.2649 149.262 55.3785 149.256 55.5981C149.249 55.8105 149.242 56.0962 149.235 56.4551C149.229 56.814 149.218 57.2314 149.205 57.7074C149.198 58.1762 149.191 58.6744 149.185 59.2016ZM148.416 61.6076C148.099 62.0837 147.812 62.6001 147.556 63.1567C147.3 63.7207 147.081 64.2883 146.899 64.8596C146.717 65.4309 146.575 65.9839 146.474 66.5186C146.379 67.0605 146.332 67.5439 146.332 67.9687C146.332 68.2397 146.352 68.4559 146.393 68.6169C146.44 68.778 146.494 68.9025 146.555 68.9904C146.622 69.0784 146.693 69.1369 146.767 69.1663C146.848 69.1956 146.922 69.2102 146.99 69.2102C147.199 69.2102 147.381 69.1187 147.536 68.9355C147.691 68.7525 147.823 68.5071 147.93 68.1994C148.038 67.8992 148.126 67.5512 148.194 67.1557C148.261 66.7603 148.311 66.3501 148.345 65.9254C148.379 65.5078 148.402 65.0902 148.416 64.6729C148.429 64.2553 148.436 63.8709 148.436 63.5194C148.436 63.2044 148.436 62.8894 148.436 62.5744C148.436 62.2596 148.429 61.9372 148.416 61.6076ZM153.484 49.5007C153.484 49.779 153.393 50.0171 153.211 50.2147C153.035 50.4052 152.819 50.5005 152.563 50.5005C152.307 50.5005 152.088 50.4052 151.906 50.2147C151.73 50.0171 151.643 49.779 151.643 49.5007C151.643 49.3616 151.666 49.2334 151.713 49.1162C151.761 48.9917 151.825 48.8856 151.906 48.7976C151.993 48.7024 152.091 48.6291 152.199 48.5779C152.314 48.5267 152.435 48.501 152.563 48.501C152.691 48.501 152.809 48.5267 152.917 48.5779C153.032 48.6291 153.13 48.7024 153.211 48.7976C153.298 48.8856 153.366 48.9917 153.413 49.1162C153.46 49.2334 153.484 49.3616 153.484 49.5007ZM151.845 55.9387C151.845 54.8841 151.906 53.8329 152.027 52.7856C152.041 52.6832 152.081 52.5952 152.149 52.5219C152.223 52.4415 152.317 52.4012 152.432 52.4012C152.533 52.4012 152.617 52.4451 152.685 52.533C152.752 52.6134 152.786 52.7087 152.786 52.8186C152.786 52.8626 152.775 52.9944 152.755 53.2142C152.742 53.4337 152.722 53.6976 152.695 54.0051C152.675 54.3054 152.654 54.6277 152.634 54.972C152.62 55.3087 152.614 55.6202 152.614 55.9057C152.614 56.2939 152.647 56.6089 152.715 56.8506C152.789 57.0849 152.88 57.2681 152.988 57.3999C153.103 57.5317 153.221 57.6197 153.342 57.6636C153.47 57.7074 153.592 57.7296 153.706 57.7296C153.895 57.7296 154.091 57.6562 154.293 57.5098C154.495 57.3634 154.701 57.1582 154.91 56.8946C155.126 56.6308 155.341 56.316 155.557 55.9496C155.773 55.5761 155.985 55.1623 156.194 54.7082C156.228 54.6351 156.275 54.5801 156.336 54.5434C156.397 54.4995 156.464 54.4776 156.538 54.4776C156.646 54.4776 156.734 54.5214 156.801 54.6094C156.875 54.6973 156.913 54.7926 156.913 54.8949C156.913 54.9682 156.899 55.0305 156.872 55.0819C156.791 55.2502 156.69 55.4554 156.569 55.6971C156.447 55.9387 156.309 56.1877 156.154 56.4441C155.999 56.7004 155.827 56.9569 155.638 57.2132C155.456 57.4622 155.261 57.6892 155.051 57.8944C154.842 58.092 154.623 58.2532 154.394 58.3777C154.165 58.5022 153.932 58.5645 153.696 58.5645C153.393 58.5645 153.126 58.4949 152.897 58.3556C152.668 58.2165 152.472 58.0297 152.31 57.7954C152.155 57.561 152.037 57.2863 151.956 56.9715C151.882 56.6492 151.845 56.3049 151.845 55.9387ZM152.917 49.5007C152.917 49.3982 152.88 49.3102 152.806 49.2371C152.739 49.1565 152.658 49.1162 152.563 49.1162C152.469 49.1162 152.388 49.1565 152.32 49.2371C152.253 49.3102 152.219 49.3982 152.219 49.5007C152.219 49.6033 152.253 49.6912 152.32 49.7644C152.388 49.8377 152.469 49.8742 152.563 49.8742C152.658 49.8742 152.739 49.8377 152.806 49.7644C152.88 49.6912 152.917 49.6033 152.917 49.5007ZM162.8 55.0819C162.759 55.1623 162.688 55.3087 162.587 55.5212C162.493 55.7336 162.361 55.9753 162.193 56.2462C162.031 56.5101 161.835 56.7847 161.606 57.0703C161.377 57.3559 161.114 57.6197 160.817 57.8614C160.52 58.0957 160.187 58.2898 159.816 58.4436C159.452 58.5975 159.054 58.6744 158.622 58.6744C158.238 58.6744 157.897 58.5975 157.601 58.4436C157.304 58.2971 157.051 58.0884 156.842 57.8173C156.633 57.5391 156.474 57.2132 156.366 56.8397C156.259 56.466 156.205 56.0522 156.205 55.5981C156.205 55.1587 156.262 54.7485 156.377 54.3677C156.491 53.9796 156.646 53.6426 156.842 53.3569C157.044 53.0713 157.277 52.8478 157.54 52.6867C157.803 52.5184 158.083 52.434 158.379 52.434C158.602 52.434 158.804 52.4781 158.986 52.566C159.168 52.6464 159.32 52.7563 159.441 52.8954C159.57 53.0347 159.667 53.1885 159.735 53.3569C159.809 53.5254 159.846 53.6938 159.846 53.8624C159.846 54.0234 159.826 54.1736 159.785 54.3127C159.752 54.4519 159.704 54.5764 159.644 54.6862C159.59 54.7888 159.526 54.873 159.451 54.939C159.377 54.9975 159.303 55.0269 159.229 55.0269C159.114 55.0269 159.02 54.9866 158.946 54.906C158.878 54.8254 158.845 54.7266 158.845 54.6094C158.845 54.5509 158.855 54.4995 158.875 54.4556C158.902 54.4116 158.929 54.3677 158.956 54.3238C158.99 54.2724 159.017 54.2139 159.037 54.1479C159.064 54.0746 159.077 53.9831 159.077 53.8732C159.077 53.7195 159.01 53.5804 158.875 53.4559C158.747 53.3314 158.582 53.2691 158.379 53.2691C158.191 53.2691 158.008 53.3314 157.833 53.4559C157.665 53.5804 157.516 53.7487 157.388 53.9612C157.26 54.1663 157.155 54.4116 157.075 54.6973C157 54.9756 156.963 55.2722 156.963 55.5872C156.963 55.8874 156.997 56.1731 157.064 56.4441C157.132 56.715 157.233 56.9569 157.368 57.1691C157.503 57.3742 157.671 57.5391 157.874 57.6636C158.083 57.7881 158.329 57.8503 158.612 57.8503C158.976 57.8503 159.313 57.7807 159.623 57.6416C159.934 57.4952 160.217 57.312 160.473 57.0922C160.729 56.8725 160.955 56.6346 161.151 56.3782C161.346 56.1144 161.512 55.8692 161.647 55.6421C161.788 55.4077 161.896 55.2064 161.97 55.0378C162.051 54.8621 162.098 54.7522 162.112 54.7082C162.139 54.6351 162.183 54.5801 162.243 54.5434C162.311 54.4995 162.382 54.4776 162.456 54.4776C162.57 54.4776 162.661 54.5214 162.729 54.6094C162.803 54.6973 162.84 54.7961 162.84 54.906C162.84 54.9499 162.827 55.0086 162.8 55.0819Z" fill="black"/>
</svg>
